<svg width="16" height="16" viewBox="0 0 16 16" fill="none" xmlns="http://www.w3.org/2000/svg">
<path d="M8 3.06333C7.2736 2.3954 6.32281 2.02469 5.336 2.02466C4.8137 2.02521 4.29665 2.12904 3.81463 2.33017C3.3326 2.53131 2.89511 2.82579 2.52734 3.19666C0.958669 4.772 0.959336 7.23599 2.52867 8.80466L7.41667 13.6927C7.53 13.892 7.74867 14.0207 8 14.0207C8.1032 14.0197 8.20473 13.9945 8.29643 13.9471C8.38813 13.8998 8.46744 13.8316 8.528 13.748L13.4713 8.80466C15.0407 7.23533 15.0407 4.772 13.47 3.194C13.1024 2.82381 12.6653 2.52993 12.1837 2.32925C11.7022 2.12858 11.1857 2.02506 10.664 2.02466C9.67722 2.02482 8.72647 2.39551 8 3.06333ZM12.5273 4.13666C13.5693 5.184 13.57 6.82 12.5287 7.862L8 12.3907L3.47134 7.862C2.43 6.82 2.43067 5.184 3.47 4.13933C3.97667 3.63533 4.63934 3.358 5.336 3.358C6.03267 3.358 6.69267 3.63533 7.19534 4.138L7.52867 4.47133C7.59053 4.53329 7.664 4.58245 7.74487 4.61599C7.82575 4.64953 7.91245 4.6668 8 4.6668C8.08756 4.6668 8.17426 4.64953 8.25513 4.61599C8.33601 4.58245 8.40948 4.53329 8.47134 4.47133L8.80467 4.138C9.81267 3.132 11.5207 3.13466 12.5273 4.13666Z" fill="#111111"/>
</svg>
