<svg width="14" height="14" viewBox="0 0 14 14" fill="none" xmlns="http://www.w3.org/2000/svg">
<path d="M8.00911 2.04743L9.03578 4.10077C9.17578 4.3866 9.54911 4.66077 9.86411 4.71327L11.7249 5.02243C12.9149 5.22077 13.1949 6.0841 12.3374 6.93577L10.8908 8.38243C10.6458 8.62743 10.5116 9.09993 10.5874 9.43827L11.0016 11.2291C11.3283 12.6466 10.5758 13.1949 9.32161 12.4541L7.57745 11.4216C7.26245 11.2349 6.74328 11.2349 6.42245 11.4216L4.67828 12.4541C3.42995 13.1949 2.67161 12.6408 2.99828 11.2291L3.41245 9.43827C3.48828 9.09993 3.35411 8.62743 3.10911 8.38243L1.66245 6.93577C0.81078 6.0841 1.08495 5.22077 2.27495 5.02243L4.13578 4.71327C4.44495 4.66077 4.81828 4.3866 4.95828 4.10077L5.98495 2.04743C6.54495 0.933266 7.45495 0.933266 8.00911 2.04743Z" fill="#FFCD1A"/>
</svg>
