<svg width="32" height="32" viewBox="0 0 32 32" fill="none" xmlns="http://www.w3.org/2000/svg">
<path opacity="0.4" d="M21.434 3.16666H25.9486C27.5382 3.16666 28.8333 4.46663 28.8333 6.07994V10.6327C28.8333 12.246 27.5382 13.546 25.9486 13.546H21.434C19.8444 13.546 18.5493 12.246 18.5493 10.6327V6.07994C18.5493 4.46663 19.8444 3.16666 21.434 3.16666Z" fill="#009B8D" stroke="#111111"/>
<path d="M10.566 18.454C12.1556 18.454 13.4507 19.754 13.4507 21.3673V25.92C13.4507 27.5322 12.1555 28.8333 10.566 28.8333H6.05136C4.46189 28.8333 3.16666 27.5322 3.16666 25.92V21.3673C3.16666 19.754 4.46177 18.454 6.05136 18.454H10.566ZM25.9486 18.454C27.5382 18.454 28.8333 19.754 28.8333 21.3673V25.92C28.8333 27.5322 27.5381 28.8333 25.9486 28.8333H21.434C19.8445 28.8333 18.5493 27.5322 18.5493 25.92V21.3673C18.5493 19.754 19.8444 18.454 21.434 18.454H25.9486ZM10.566 3.16666C12.1556 3.16666 13.4507 4.46663 13.4507 6.07994V10.6327C13.4507 12.246 12.1556 13.546 10.566 13.546H6.05136C4.46177 13.546 3.16666 12.246 3.16666 10.6327V6.07994C3.16666 4.46663 4.46177 3.16666 6.05136 3.16666H10.566Z" fill="#009B8D" stroke="#111111"/>
</svg>
